<svg width="41" height="41" viewBox="0 0 41 41" fill="none" xmlns="http://www.w3.org/2000/svg">
<g clip-path="url(#clip0_103_784)">
<path d="M23.4508 20.4998C22.9408 20.4998 22.0108 20.4931 22.0108 20.4931C22.0108 20.4931 22.0142 17.6831 22.0142 17.0031C22.0142 16.6731 21.7208 16.5098 21.4275 16.5098C21.1342 16.5098 20.8408 16.6764 20.8408 17.0064C20.8442 17.9498 20.8475 20.9864 20.8475 20.9864C20.8475 20.9864 20.7608 21.5898 21.2775 21.5898C21.7942 21.5898 22.9442 21.5831 23.4508 21.5831C23.9608 21.5831 23.9575 20.4998 23.4508 20.4998Z" fill="#30302D"/>
<path d="M16.3741 16.5097C15.6141 16.5097 13.0807 16.4897 13.0807 16.4897C12.4441 16.4897 12.4474 17.5297 13.0807 17.5297H14.1641C14.1641 17.5297 14.1707 20.5064 14.1641 21.1997C14.1641 21.7064 15.2907 21.7131 15.2907 21.2064L15.2941 17.5697C15.2941 17.5697 15.6574 17.5731 16.3707 17.5731C17.0474 17.5697 17.0474 16.5097 16.3741 16.5097Z" fill="#30302D"/>
<path d="M18.914 16.833C18.824 16.643 18.5073 16.5063 18.2006 16.5063C17.9473 16.5063 17.6973 16.5997 17.594 16.833C17.3273 17.4197 16.364 20.193 16.044 20.9263C15.814 21.4563 16.8106 21.8897 17.0406 21.3597L17.2573 20.603H19.2406C19.2406 20.603 19.174 20.633 19.434 21.3297C19.6473 21.893 20.6773 21.503 20.464 20.9397C20.1573 20.1363 19.104 17.243 18.914 16.833ZM17.614 19.6063L18.2673 17.7163L18.8706 19.6063H17.614Z" fill="#30302D"/>
<path d="M20.424 0.739746C9.56399 0.739746 0.757324 9.54641 0.757324 20.4064C0.757324 31.2664 9.56399 40.0731 20.424 40.0731C31.284 40.0731 40.0907 31.2664 40.0907 20.4064C40.0907 9.54641 31.284 0.739746 20.424 0.739746ZM20.424 27.3764C19.7573 27.3764 19.104 27.3264 18.4707 27.2331C17.304 28.0264 14.6007 29.8631 14.4207 29.9864C14.1907 30.1397 13.8373 30.1464 13.9807 29.5764C14.0973 29.1164 14.674 26.9597 14.894 26.1397C11.8973 24.6731 9.90066 22.0531 9.90066 19.0597C9.90066 14.4631 14.6107 10.7397 20.424 10.7397C26.2373 10.7397 30.9473 14.4631 30.9473 19.0597C30.9473 23.6531 26.2373 27.3764 20.424 27.3764Z" fill="#FAE100"/>
<path d="M26.344 18.8131C26.344 18.8131 27.374 17.6998 27.7806 17.2964C28.0173 17.0598 27.284 16.3231 27.0473 16.5598C26.8173 16.7864 25.204 18.3998 25.204 18.3998C25.204 18.3998 25.2173 17.3864 25.204 16.8264C25.1973 16.6131 24.9373 16.5098 24.6706 16.5098C24.384 16.5098 24.094 16.6264 24.0973 16.8564C24.1073 17.2698 24.084 21.0064 24.084 21.2831C24.084 21.7198 25.1973 21.7198 25.1973 21.2831C25.1973 20.7764 25.1973 19.8131 25.1973 19.8131L25.524 19.5498L26.9507 21.4998C27.2407 21.8798 28.1473 21.1931 27.8606 20.8131L26.344 18.8131Z" fill="#30302D"/>
</g>
<defs>
<clipPath id="clip0_103_784">
<rect width="40" height="40" fill="white" transform="translate(0.423828 0.40625)"/>
</clipPath>
</defs>
</svg>
