<svg width="49" height="49" viewBox="0 0 49 49" fill="none" xmlns="http://www.w3.org/2000/svg">
<mask id="mask0_919_10344" style="mask-type:alpha" maskUnits="userSpaceOnUse" x="0" y="0" width="49" height="49">
<rect x="0.845703" y="0.283203" width="48" height="48" fill="#D9D9D9"/>
</mask>
<g mask="url(#mask0_919_10344)">
<path d="M24.8457 34.2832C25.4124 34.2832 25.8877 34.0912 26.2717 33.7072C26.6544 33.3245 26.8457 32.8499 26.8457 32.2832C26.8457 31.7165 26.6544 31.2412 26.2717 30.8572C25.8877 30.4745 25.4124 30.2832 24.8457 30.2832C24.279 30.2832 23.8044 30.4745 23.4217 30.8572C23.0377 31.2412 22.8457 31.7165 22.8457 32.2832C22.8457 32.8499 23.0377 33.3245 23.4217 33.7072C23.8044 34.0912 24.279 34.2832 24.8457 34.2832ZM22.8457 26.2832H26.8457V14.2832H22.8457V26.2832ZM24.8457 44.2832C22.079 44.2832 19.479 43.7579 17.0457 42.7072C14.6124 41.6579 12.4957 40.2332 10.6957 38.4332C8.8957 36.6332 7.47104 34.5165 6.4217 32.0832C5.37104 29.6499 4.8457 27.0499 4.8457 24.2832C4.8457 21.5165 5.37104 18.9165 6.4217 16.4832C7.47104 14.0499 8.8957 11.9332 10.6957 10.1332C12.4957 8.3332 14.6124 6.90787 17.0457 5.8572C19.479 4.80787 22.079 4.2832 24.8457 4.2832C27.6124 4.2832 30.2124 4.80787 32.6457 5.8572C35.079 6.90787 37.1957 8.3332 38.9957 10.1332C40.7957 11.9332 42.2204 14.0499 43.2697 16.4832C44.3204 18.9165 44.8457 21.5165 44.8457 24.2832C44.8457 27.0499 44.3204 29.6499 43.2697 32.0832C42.2204 34.5165 40.7957 36.6332 38.9957 38.4332C37.1957 40.2332 35.079 41.6579 32.6457 42.7072C30.2124 43.7579 27.6124 44.2832 24.8457 44.2832ZM24.8457 40.2832C29.3124 40.2832 33.0957 38.7332 36.1957 35.6332C39.2957 32.5332 40.8457 28.7499 40.8457 24.2832C40.8457 19.8165 39.2957 16.0332 36.1957 12.9332C33.0957 9.8332 29.3124 8.2832 24.8457 8.2832C20.379 8.2832 16.5957 9.8332 13.4957 12.9332C10.3957 16.0332 8.8457 19.8165 8.8457 24.2832C8.8457 28.7499 10.3957 32.5332 13.4957 35.6332C16.5957 38.7332 20.379 40.2832 24.8457 40.2832Z" fill="#FE5151"/>
</g>
</svg>
