<svg width="27" height="28" viewBox="0 0 27 28" fill="none" xmlns="http://www.w3.org/2000/svg">
<path d="M20.9958 0.779053H6.00417C2.9 0.779053 0.375 3.24989 0.375 6.28322V21.7207C0.375 24.7582 2.9 27.2249 6.00417 27.2249H20.9958C24.1 27.2249 26.625 24.7582 26.625 21.7207V6.28322C26.625 3.24989 24.1 0.779053 20.9958 0.779053ZM24.3583 21.7166C24.3583 23.4999 22.85 24.9541 20.9958 24.9541H6.00417C4.15 24.9541 2.64167 23.5041 2.64167 21.7166V6.28322C2.64167 4.49989 4.15 3.04989 6.00417 3.04989H20.9958C22.85 3.04989 24.3583 4.49989 24.3583 6.28322V21.7166Z" fill="#30302D"/>
<path d="M13.5 7.13745C9.71662 7.13745 6.63745 10.2166 6.63745 14C6.63745 17.7833 9.71662 20.8625 13.5 20.8625C17.2833 20.8625 20.3625 17.7833 20.3625 14C20.3625 10.2166 17.2833 7.13745 13.5 7.13745ZM13.5 18.5958C10.9666 18.5958 8.90412 16.5333 8.90412 14C8.90412 11.4666 10.9666 9.40412 13.5 9.40412C16.0333 9.40412 18.0958 11.4666 18.0958 14C18.0958 16.5333 16.0333 18.5958 13.5 18.5958Z" fill="#30302D"/>
<path d="M20.8666 5.1875C19.9791 5.1875 19.2625 5.90833 19.2625 6.79167C19.2625 7.67917 19.9791 8.39583 20.8666 8.39583C21.7541 8.39583 22.4708 7.675 22.4708 6.79167C22.4708 5.90417 21.7541 5.1875 20.8666 5.1875Z" fill="#30302D"/>
</svg>
