<svg width="29" height="21" viewBox="0 0 29 21" fill="none" xmlns="http://www.w3.org/2000/svg">
<path d="M25.6504 0.91247C23.9295 0.291636 9.01286 0.220804 4.18786 0.73747C3.24619 0.83747 2.45869 1.26247 1.85036 1.9833C0.0586933 4.09164 0.329527 14.7916 1.26286 17.35C1.64619 18.4 2.35453 19.0916 3.41286 19.4375C5.77953 20.2166 24.317 20.2291 26.117 19.2833C26.7837 18.9375 27.3045 18.4458 27.6337 17.7541C28.817 15.2041 28.7837 5.5833 27.767 2.93747C27.3712 1.9333 26.6545 1.27497 25.6504 0.91247ZM11.0795 14.4208C11.0795 11.3916 11.0795 8.39997 11.0795 5.37497C13.9754 6.88747 16.8545 8.38747 19.7712 9.91247C16.8545 11.425 13.9795 12.9166 11.0795 14.4208Z" fill="#30302D"/>
</svg>
