<svg width="101" height="101" viewBox="0 0 101 101" fill="none" xmlns="http://www.w3.org/2000/svg">
<path d="M70.4277 16.0771H30.8241C30.1086 16.0771 29.5273 16.6564 29.5273 17.3739V29.2804V31.8719V72.0832V74.6747V84.319C29.5273 84.5711 29.6005 84.8089 29.7245 85.0081H45.2245V70.3434H56.0212V85.0081H71.5212C71.6473 84.8089 71.7184 84.5731 71.7184 84.319V74.6747V72.0832V27.0711V24.4796V17.3739C71.7245 16.6585 71.1432 16.0771 70.4277 16.0771ZM41.7448 58.1219H37.1554V53.5324H41.7448V58.1219ZM41.7448 43.815H37.1554V39.2255H41.7448V43.815ZM41.7448 29.508H37.1554V24.9186H41.7448V29.508ZM52.7448 58.1219H48.1554V53.5324H52.7448V58.1219ZM52.7448 43.815H48.1554V39.2255H52.7448V43.815ZM52.7448 29.508H48.1554V24.9186H52.7448V29.508ZM63.7448 58.1219H59.1554V53.5324H63.7448V58.1219ZM63.7448 43.815H59.1554V39.2255H63.7448V43.815ZM63.7448 29.508H59.1554V24.9186H63.7448V29.508Z" fill="#30302D"/>
<path d="M90.6191 24.4795H73.0195V74.6746H90.6171C91.3325 74.6746 91.9138 74.0953 91.9138 73.3779V25.7742C91.9138 25.0588 91.3346 24.4795 90.6191 24.4795ZM82.8183 65.5669H78.2289V60.9775H82.8183V65.5669ZM82.8183 51.8718H78.2289V47.2823H82.8183V51.8718ZM82.8183 38.1746H78.2289V33.5852H82.8183V38.1746Z" fill="#30302D"/>
<path d="M8.98828 30.5751V73.3779C8.98828 74.0934 9.56755 74.6747 10.285 74.6747H28.2363V29.2783H10.285C9.56755 29.2783 8.98828 29.8596 8.98828 30.5751ZM18.2606 35.9856H22.8501V40.5751H18.2606V35.9856ZM18.2606 49.6828H22.8501V54.2722H18.2606V49.6828ZM18.2606 63.3779H22.8501V67.9673H18.2606V63.3779Z" fill="#30302D"/>
</svg>
