<svg width="101" height="101" viewBox="0 0 101 101" fill="none" xmlns="http://www.w3.org/2000/svg">
<path d="M50.4994 50.3897C45.916 50.3897 42.166 48.9313 39.2494 46.0147C36.3327 43.098 34.8744 39.348 34.8744 34.7647C34.8744 30.1813 36.3327 26.4313 39.2494 23.5146C42.166 20.598 45.916 19.1396 50.4994 19.1396C55.0827 19.1396 58.8327 20.598 61.7494 23.5146C64.666 26.4313 66.1244 30.1813 66.1244 34.7647C66.1244 39.348 64.666 43.098 61.7494 46.0147C58.8327 48.9313 55.0827 50.3897 50.4994 50.3897V50.3897ZM17.166 83.8272V74.0355C17.166 71.3966 17.8257 69.1396 19.1452 67.2646C20.4646 65.3896 22.166 63.966 24.2493 62.9938C28.9021 60.9105 33.3639 59.348 37.6348 58.3063C41.9056 57.2646 46.1938 56.7438 50.4994 56.7438C54.8049 56.7438 59.0757 57.282 63.3119 58.3584C67.548 59.4348 71.9924 60.9799 76.6452 62.9938C78.798 63.966 80.5341 65.3896 81.8535 67.2646C83.173 69.1396 83.8327 71.3966 83.8327 74.0355V83.8272H17.166ZM23.416 77.5772H77.5827V74.0355C77.5827 72.9244 77.2528 71.8653 76.5931 70.8584C75.9334 69.8515 75.1174 69.1049 74.1452 68.6188C69.7007 66.466 65.6382 64.9903 61.9577 64.1917C58.2771 63.3931 54.4577 62.9938 50.4994 62.9938C46.541 62.9938 42.6869 63.3931 38.9369 64.1917C35.1869 64.9903 31.1244 66.466 26.7494 68.6188C25.7771 69.1049 24.9785 69.8515 24.3535 70.8584C23.7285 71.8653 23.416 72.9244 23.416 74.0355V77.5772ZM50.4994 44.1397C53.2077 44.1397 55.4473 43.2542 57.2181 41.4834C58.9889 39.7126 59.8744 37.473 59.8744 34.7647C59.8744 32.0563 58.9889 29.8167 57.2181 28.0459C55.4473 26.2751 53.2077 25.3896 50.4994 25.3896C47.791 25.3896 45.5514 26.2751 43.7806 28.0459C42.0098 29.8167 41.1244 32.0563 41.1244 34.7647C41.1244 37.473 42.0098 39.7126 43.7806 41.4834C45.5514 43.2542 47.791 44.1397 50.4994 44.1397Z" fill="#30302D"/>
</svg>
