<svg width="23" height="26" viewBox="0 0 23 26" fill="none" xmlns="http://www.w3.org/2000/svg">
<rect y="0.123535" width="23" height="25" rx="8" fill="#CBB1B0"/>
<path d="M11.5 12.5996C10.4458 12.5996 9.58331 12.2642 8.91248 11.5933C8.24165 10.9225 7.90623 10.06 7.90623 9.00583C7.90623 7.95166 8.24165 7.08916 8.91248 6.41833C9.58331 5.7475 10.4458 5.41208 11.5 5.41208C12.5541 5.41208 13.4166 5.7475 14.0875 6.41833C14.7583 7.08916 15.0937 7.95166 15.0937 9.00583C15.0937 10.06 14.7583 10.9225 14.0875 11.5933C13.4166 12.2642 12.5541 12.5996 11.5 12.5996ZM3.83331 20.2902V18.0381C3.83331 17.4312 3.98505 16.9121 4.28852 16.4808C4.59199 16.0496 4.98331 15.7221 5.46248 15.4985C6.53262 15.0194 7.55883 14.66 8.54113 14.4204C9.52342 14.1808 10.5097 14.061 11.5 14.061C12.4903 14.061 13.4725 14.1848 14.4469 14.4324C15.4212 14.68 16.4434 15.0353 17.5135 15.4985C18.0087 15.7221 18.408 16.0496 18.7114 16.4808C19.0149 16.9121 19.1666 17.4312 19.1666 18.0381V20.2902H3.83331ZM5.27081 18.8527H17.7291V18.0381C17.7291 17.7826 17.6533 17.539 17.5015 17.3074C17.3498 17.0758 17.1621 16.9041 16.9385 16.7923C15.9163 16.2971 14.9819 15.9577 14.1354 15.7741C13.2889 15.5904 12.4104 15.4985 11.5 15.4985C10.5896 15.4985 9.7031 15.5904 8.8406 15.7741C7.97811 15.9577 7.04373 16.2971 6.03748 16.7923C5.81387 16.9041 5.63019 17.0758 5.48644 17.3074C5.34269 17.539 5.27081 17.7826 5.27081 18.0381V18.8527ZM11.5 11.1621C12.1229 11.1621 12.638 10.9584 13.0453 10.5511C13.4526 10.1438 13.6562 9.62875 13.6562 9.00583C13.6562 8.38291 13.4526 7.86781 13.0453 7.46052C12.638 7.05322 12.1229 6.84958 11.5 6.84958C10.8771 6.84958 10.362 7.05322 9.95467 7.46052C9.54738 7.86781 9.34373 8.38291 9.34373 9.00583C9.34373 9.62875 9.54738 10.1438 9.95467 10.5511C10.362 10.9584 10.8771 11.1621 11.5 11.1621Z" fill="#30302D"/>
</svg>
