<svg width="23" height="26" viewBox="0 0 23 26" fill="none" xmlns="http://www.w3.org/2000/svg">
<rect y="0.712891" width="23" height="25" rx="8" fill="#A6CFEF"/>
<path d="M11.5007 13.1885C10.4465 13.1885 9.58398 12.8531 8.91315 12.1822C8.24232 11.5114 7.9069 10.6489 7.9069 9.59473C7.9069 8.54056 8.24232 7.67806 8.91315 7.00723C9.58398 6.33639 10.4465 6.00098 11.5007 6.00098C12.5548 6.00098 13.4173 6.33639 14.0882 7.00723C14.759 7.67806 15.0944 8.54056 15.0944 9.59473C15.0944 10.6489 14.759 11.5114 14.0882 12.1822C13.4173 12.8531 12.5548 13.1885 11.5007 13.1885ZM3.83398 20.8791V18.627C3.83398 18.0201 3.98572 17.501 4.28919 17.0697C4.59266 16.6385 4.98398 16.311 5.46315 16.0874C6.53329 15.6083 7.55951 15.2489 8.5418 15.0093C9.52409 14.7697 10.5104 14.6499 11.5007 14.6499C12.4909 14.6499 13.4732 14.7737 14.4475 15.0213C15.4218 15.2689 16.4441 15.6242 17.5142 16.0874C18.0093 16.311 18.4086 16.6385 18.7121 17.0697C19.0156 17.501 19.1673 18.0201 19.1673 18.627V20.8791H3.83398ZM5.27148 19.4416H17.7298V18.627C17.7298 18.3715 17.6539 18.1279 17.5022 17.8963C17.3505 17.6647 17.1628 17.493 16.9392 17.3812C15.917 16.886 14.9826 16.5466 14.1361 16.363C13.2895 16.1793 12.4111 16.0874 11.5007 16.0874C10.5902 16.0874 9.70378 16.1793 8.84128 16.363C7.97878 16.5466 7.0444 16.886 6.03815 17.3812C5.81454 17.493 5.63086 17.6647 5.48711 17.8963C5.34336 18.1279 5.27148 18.3715 5.27148 18.627V19.4416ZM11.5007 11.751C12.1236 11.751 12.6387 11.5473 13.046 11.14C13.4533 10.7327 13.6569 10.2176 13.6569 9.59473C13.6569 8.97181 13.4533 8.45671 13.046 8.04941C12.6387 7.64212 12.1236 7.43848 11.5007 7.43848C10.8777 7.43848 10.3626 7.64212 9.95534 8.04941C9.54805 8.45671 9.3444 8.97181 9.3444 9.59473C9.3444 10.2176 9.54805 10.7327 9.95534 11.14C10.3626 11.5473 10.8777 11.751 11.5007 11.751Z" fill="#30302D"/>
</svg>
