<svg width="25" height="26" viewBox="0 0 25 26" fill="none" xmlns="http://www.w3.org/2000/svg">
<path d="M12.5 21.9725L11.4323 21.009C9.59201 19.3249 8.07291 17.8709 6.87499 16.647C5.67708 15.423 4.72222 14.3293 4.01041 13.3657C3.29861 12.4022 2.79947 11.5298 2.51302 10.7485C2.22656 9.96728 2.08333 9.17735 2.08333 8.37874C2.08333 6.81624 2.6085 5.50982 3.65885 4.45947C4.7092 3.40912 6.00694 2.88395 7.55208 2.88395C8.54166 2.88395 9.45746 3.11832 10.2995 3.58707C11.1415 4.05582 11.875 4.73291 12.5 5.61832C13.2292 4.68082 14.0017 3.99072 14.8177 3.54801C15.6337 3.1053 16.5104 2.88395 17.4479 2.88395C18.993 2.88395 20.2908 3.40912 21.3411 4.45947C22.3915 5.50982 22.9167 6.81624 22.9167 8.37874C22.9167 9.17735 22.7734 9.96728 22.487 10.7485C22.2005 11.5298 21.7014 12.4022 20.9896 13.3657C20.2778 14.3293 19.3229 15.423 18.125 16.647C16.9271 17.8709 15.408 19.3249 13.5677 21.009L12.5 21.9725ZM12.5 19.9152C14.2535 18.3006 15.6988 16.9161 16.8359 15.7616C17.9731 14.607 18.8759 13.5958 19.5443 12.7277C20.2127 11.8596 20.6814 11.0871 20.9505 10.41C21.2196 9.73291 21.3542 9.05582 21.3542 8.37874C21.3542 7.23291 20.9896 6.29107 20.2604 5.55322C19.5312 4.81537 18.5937 4.44645 17.4479 4.44645C16.5625 4.44645 15.7378 4.71989 14.974 5.26676C14.2101 5.81364 13.5937 6.58187 13.125 7.57145H11.849C11.3976 6.59923 10.7899 5.83534 10.026 5.27978C9.26215 4.72423 8.43749 4.44645 7.55208 4.44645C6.40624 4.44645 5.46874 4.81537 4.73958 5.55322C4.01041 6.29107 3.64583 7.23291 3.64583 8.37874C3.64583 9.05582 3.78038 9.73725 4.04947 10.423C4.31857 11.1088 4.78732 11.89 5.45572 12.7668C6.12413 13.6435 7.03124 14.6548 8.17708 15.8006C9.32291 16.9464 10.7639 18.318 12.5 19.9152Z" fill="black"/>
</svg>
