<svg width="34" height="31" viewBox="0 0 34 31" fill="none" xmlns="http://www.w3.org/2000/svg">
<path d="M17 14.9521C14.7083 14.9521 12.8333 14.2813 11.375 12.9396C9.91668 11.598 9.18751 9.87298 9.18751 7.76465C9.18751 5.65632 9.91668 3.93132 11.375 2.58965C12.8333 1.24798 14.7083 0.577148 17 0.577148C19.2917 0.577148 21.1667 1.24798 22.625 2.58965C24.0833 3.93132 24.8125 5.65632 24.8125 7.76465C24.8125 9.87298 24.0833 11.598 22.625 12.9396C21.1667 14.2813 19.2917 14.9521 17 14.9521V14.9521ZM0.333344 30.3334V25.8292C0.333344 24.6153 0.663204 23.5771 1.32293 22.7146C1.98265 21.8521 2.83334 21.1973 3.87501 20.7501C6.2014 19.7917 8.4323 19.073 10.5677 18.5938C12.7031 18.1146 14.8472 17.8751 17 17.8751C19.1528 17.8751 21.2882 18.1226 23.4063 18.6178C25.5243 19.1129 27.7465 19.8237 30.0729 20.7501C31.1493 21.1973 32.0174 21.8521 32.6771 22.7146C33.3368 23.5771 33.6667 24.6153 33.6667 25.8292V30.3334H0.333344ZM3.45834 27.4584H30.5417V25.8292C30.5417 25.3181 30.3767 24.831 30.0469 24.3678C29.717 23.9046 29.309 23.5612 28.8229 23.3376C26.6007 22.3473 24.5695 21.6685 22.7292 21.3011C20.8889 20.9337 18.9792 20.7501 17 20.7501C15.0208 20.7501 13.0938 20.9337 11.2188 21.3011C9.34376 21.6685 7.31251 22.3473 5.12501 23.3376C4.6389 23.5612 4.23959 23.9046 3.92709 24.3678C3.61459 24.831 3.45834 25.3181 3.45834 25.8292V27.4584ZM17 12.0771C18.3542 12.0771 19.474 11.6699 20.3594 10.8553C21.2448 10.0407 21.6875 9.01048 21.6875 7.76465C21.6875 6.51882 21.2448 5.48861 20.3594 4.67402C19.474 3.85944 18.3542 3.45215 17 3.45215C15.6458 3.45215 14.5261 3.85944 13.6406 4.67402C12.7552 5.48861 12.3125 6.51882 12.3125 7.76465C12.3125 9.01048 12.7552 10.0407 13.6406 10.8553C14.5261 11.6699 15.6458 12.0771 17 12.0771Z" fill="#E5D8D8"/>
</svg>
