<svg width="142" height="27" viewBox="0 0 142 27" fill="none" xmlns="http://www.w3.org/2000/svg">
<g clip-path="url(#clip0_58_175)">
<path d="M6.68729 19.788V3.60797L6.69076 3.60083H-0.00695801V27.0001H23.112L23.105 19.788H6.68729Z" fill="white"/>
<path d="M25.9397 0H10.453V16.8723H25.9397L17.9671 8.67883L25.9397 0Z" fill="white"/>
<path d="M57.1633 15.2164H46.8145V25.6403H43.2642V15.2164H32.9188V12.722H50.5142C50.7748 12.2259 50.9728 11.6335 51.1048 10.9626C51.2368 10.2882 51.3028 9.50309 51.3028 8.61451V4.58914C51.3028 4.37502 51.2646 4.23941 51.1916 4.17161C51.1187 4.10381 50.9624 4.06455 50.74 4.06455H35.097V1.58081H54.4919C54.5891 1.58081 54.6551 1.60579 54.7038 1.65218C54.7455 1.70214 54.7698 1.77351 54.7698 1.87344V8.93569C54.7698 9.67082 54.6968 10.3489 54.544 10.9769C54.3981 11.6014 54.1618 12.1867 53.8422 12.7255H57.1668V15.2164H57.1633Z" fill="white"/>
<path d="M78.1528 17.8357C78.7955 18.4923 79.1255 19.3167 79.1255 20.3266C79.1255 21.3258 78.7955 22.168 78.1528 22.8318C77.5032 23.4955 76.7181 23.8274 75.794 23.8274C74.8734 23.8274 74.0918 23.4955 73.4561 22.8318C72.8203 22.168 72.5007 21.3258 72.5007 20.3266C72.5007 19.3167 72.8203 18.4923 73.4561 17.8357C74.0918 17.1755 74.8734 16.8508 75.794 16.8508C76.7181 16.8472 77.5067 17.1755 78.1528 17.8357ZM71.0347 16.1406C69.7181 17.3076 69.0581 18.7065 69.0581 20.3266C69.0581 21.9682 69.7181 23.3635 71.0347 24.5197C72.3479 25.6831 73.9389 26.2612 75.794 26.2612C77.6595 26.2612 79.2402 25.6795 80.5602 24.5197C81.8769 23.3635 82.5334 21.9682 82.5334 20.3266C82.5334 18.7065 81.8769 17.3076 80.5602 16.1406C79.2436 14.9701 77.6595 14.3849 75.794 14.3849C73.9424 14.3849 72.3479 14.9701 71.0347 16.1406ZM66.6368 6.92296C66.2824 7.76871 65.8308 8.49671 65.2819 9.11764C64.5872 9.88846 63.8298 10.4523 63.003 10.8092C62.1763 11.1696 61.4849 11.348 60.9395 11.348C60.8666 11.348 60.8249 11.373 60.818 11.4194C60.8041 11.4693 60.8249 11.5122 60.8596 11.5514L62.6904 13.4927C63.611 13.3964 64.74 12.9253 66.0914 12.101C67.4288 11.2766 68.3737 10.2418 68.9226 9.032C68.9747 8.91423 69.0477 8.86071 69.131 8.86784C69.2144 8.88212 69.2804 8.93208 69.3152 9.032C69.8988 10.2418 70.8611 11.2766 72.2055 12.101C73.5464 12.9253 74.6615 13.3964 75.5404 13.4927L77.3747 11.5514C77.4163 11.4943 77.4302 11.4444 77.4302 11.4051C77.4302 11.3694 77.3816 11.3516 77.2913 11.3516C76.7285 11.3516 76.0337 11.1624 75.2069 10.7877C74.3767 10.413 73.6194 9.83136 72.9211 9.03913C72.3965 8.43961 71.9553 7.72232 71.5975 6.8837C71.2397 6.04151 71.0486 5.06372 71.0347 3.93961H75.9052V1.50226H62.3777V3.93247H67.1926C67.1822 5.07443 66.9911 6.07006 66.6368 6.92296ZM74.8908 6.16642V8.65016H80.5359V14.5919H83.916V0.395996H78.8476V1.76277H79.4104C79.7856 1.76277 80.0635 1.89481 80.2615 2.15531C80.4421 2.41939 80.5394 2.6799 80.5394 2.95468V6.16998H74.8908V6.16642Z" fill="white"/>
<path d="M99.903 15.3448C99.7779 15.4805 99.5451 15.5483 99.2116 15.5483H94.7025C94.3829 15.5483 94.1467 15.4876 94.0147 15.3591C93.8653 15.2378 93.7993 15.0201 93.7993 14.7096V4.51416H100.084V14.7061C100.084 14.9916 100.025 15.2057 99.903 15.3448ZM90.4192 14.9345C90.4192 15.8801 90.7005 16.6295 91.2633 17.1791C91.8191 17.7322 92.5626 18.007 93.4866 18.007H100.396C101.393 18.007 102.151 17.7322 102.675 17.1791C103.207 16.6295 103.471 15.8801 103.471 14.9345V2.34088C103.471 2.2481 103.446 2.17673 103.398 2.12677C103.353 2.0768 103.283 2.05182 103.186 2.05182H88.7239V3.46856H89.2936C89.6723 3.46856 89.9536 3.58275 90.1447 3.80401C90.3254 4.02526 90.4261 4.29647 90.4261 4.5998V14.9345M111.277 0.395996H106.229V1.76277H106.792C107.163 1.76277 107.452 1.89481 107.639 2.15531C107.823 2.41939 107.924 2.6799 107.924 2.95468V25.6831H111.277V11.4051H114.942V8.91424H111.277V0.395996Z" fill="white"/>
<path d="M127.833 17.5325H117.175V15.0702H142.003V17.5325H131.38V25.6439H127.83V17.5325M120.562 8.37907C120.562 8.07217 120.465 7.80809 120.284 7.58327C120.09 7.36202 119.809 7.24782 119.433 7.24782H119.155V5.86321H135.587V3.6364H119.572V1.17407H138.794C138.891 1.17407 138.96 1.19905 139.009 1.24901C139.054 1.29184 139.078 1.36321 139.078 1.45956V7.72245C139.078 7.8759 139.04 8.0008 138.95 8.09715C138.866 8.1935 138.717 8.23989 138.516 8.23989H124.078V10.5309H139.36V13.0147H122.813C121.987 13.0147 121.4 12.8398 121.066 12.5044C120.729 12.1689 120.559 11.5872 120.559 10.7593V8.37907H120.562Z" fill="white"/>
</g>
<defs>
<clipPath id="clip0_58_175">
<rect width="142" height="27" fill="white"/>
</clipPath>
</defs>
</svg>
