<svg width="30" height="30" viewBox="0 0 30 30" fill="none" xmlns="http://www.w3.org/2000/svg">
<circle cx="15" cy="15" r="15" fill="#61605A"/>
<path d="M24.0388 17.9419C24.0388 19.5241 22.7603 20.8071 21.1837 20.8071H8.81622C7.239 20.8071 5.96094 19.5241 5.96094 17.9419V11.1445C5.96094 9.56201 7.239 8.2793 8.81622 8.2793H21.1835C22.7601 8.2793 24.0386 9.56201 24.0386 11.1445V17.9419H24.0388Z" fill="#F5F2E8"/>
<path d="M17.2246 20.3175L15.3873 20.2029V20.1545L15.0022 20.1784L14.6129 20.1543V20.2029L12.7754 20.3177L14.5301 23.1742C14.5301 23.1742 14.5458 23.2023 14.5774 23.2414C14.6623 23.3868 14.8189 23.4863 14.9994 23.4863C15.1795 23.4863 15.3351 23.3885 15.4206 23.2445C15.4571 23.2015 15.4696 23.1738 15.4696 23.1738L17.2246 20.3175Z" fill="#F5F2E8"/>
<path d="M9.9753 13.2606C9.9753 13.2606 9.48193 13.2606 9.0348 13.6964V11.9414H7.92773V16.5525H9.04599V16.1913C9.04599 16.1913 9.30967 16.6676 9.9753 16.6676C9.9753 16.6676 11.5352 16.6099 11.5352 14.947C11.5352 14.947 11.4778 13.2606 9.9753 13.2606ZM9.73168 15.6941C9.33922 15.6941 9.02023 15.3756 9.02023 14.9827C9.02023 14.59 9.33901 14.2714 9.73168 14.2714C10.1243 14.2714 10.4429 14.5898 10.4429 14.9827C10.4429 15.3756 10.1243 15.6941 9.73168 15.6941Z" fill="#61605A"/>
<path d="M11.8906 11.8379V12.9048C11.8906 12.9048 12.3956 12.8816 12.3956 13.8225V16.5522H13.4621V13.5701C13.4621 13.5701 13.5082 11.8379 11.8906 11.8379Z" fill="#61605A"/>
<path d="M16.0708 13.2754C16.0708 13.2754 14.2424 13.2756 14.2424 14.9831C14.2424 14.9831 14.1831 16.6677 16.0708 16.6677C16.0708 16.6677 17.9417 16.665 17.9417 14.9831C17.9417 14.9831 18.0025 13.2754 16.0708 13.2754ZM16.071 15.6943C15.6786 15.6943 15.3598 15.3757 15.3598 14.9829C15.3598 14.5902 15.6784 14.2716 16.071 14.2716C16.4637 14.2716 16.7823 14.59 16.7823 14.9829C16.7823 15.3757 16.4639 15.6943 16.071 15.6943Z" fill="#61605A"/>
<path d="M20.9957 13.3857V13.6949C20.9957 13.6949 20.6773 13.2738 20.0668 13.2738C20.0668 13.2738 18.501 13.2075 18.501 14.9698C18.501 14.9698 18.4839 16.6116 20.0239 16.6116C20.0239 16.6116 20.652 16.6372 20.9959 16.1901V16.4485C20.9959 16.4485 21.0734 17.257 20.2906 17.257H20.0239V18.2374H20.454C20.454 18.2374 22.0711 18.2547 22.0711 16.5084V13.3857H20.9957ZM20.3341 15.6927C19.9412 15.6927 19.623 15.3741 19.623 14.9812C19.623 14.5886 19.9412 14.27 20.3341 14.27C20.7265 14.27 21.0453 14.5884 21.0453 14.9812C21.0453 15.3741 20.7267 15.6927 20.3341 15.6927Z" fill="#61605A"/>
</svg>
