<svg width="30" height="30" viewBox="0 0 30 30" fill="none" xmlns="http://www.w3.org/2000/svg">
<g clip-path="url(#clip0_1857_31087)">
<path d="M14.9997 12.2422C13.4797 12.2422 12.2422 13.4797 12.2422 14.9997C12.2422 16.5197 13.4797 17.7572 14.9997 17.7572C16.5197 17.7572 17.7572 16.5197 17.7572 14.9997C17.7572 13.4797 16.5197 12.2422 14.9997 12.2422Z" fill="#61605A"/>
<path d="M19.4979 8.42773H10.5029C9.39035 8.42773 8.48535 9.29773 8.48535 10.3677V19.6302C8.48535 20.7002 9.39035 21.5727 10.5029 21.5727H19.4979C20.6104 21.5727 21.5154 20.7027 21.5154 19.6302V10.3702C21.5154 9.29773 20.6104 8.42773 19.4979 8.42773ZM15.0004 19.1177C12.7304 19.1177 10.8829 17.2702 10.8829 15.0002C10.8829 12.7302 12.7304 10.8827 15.0004 10.8827C17.2704 10.8827 19.1179 12.7302 19.1179 15.0002C19.1179 17.2702 17.2704 19.1177 15.0004 19.1177ZM19.4204 11.6377C18.8879 11.6377 18.4579 11.2052 18.4579 10.6752C18.4579 10.1427 18.8879 9.71273 19.4204 9.71273C19.9529 9.71273 20.3829 10.1452 20.3829 10.6752C20.3829 11.2077 19.9529 11.6377 19.4204 11.6377Z" fill="#61605A"/>
<path d="M15 0.25C6.855 0.25 0.25 6.855 0.25 15C0.25 23.145 6.855 29.75 15 29.75C23.145 29.75 29.75 23.145 29.75 15C29.75 6.855 23.145 0.25 15 0.25ZM22.875 19.63C22.875 21.4525 21.36 22.9325 19.4975 22.9325H10.5025C8.64 22.9325 7.125 21.4525 7.125 19.63V10.37C7.125 8.55 8.64 7.0675 10.5025 7.0675H19.4975C21.36 7.0675 22.875 8.55 22.875 10.37V19.63Z" fill="#61605A"/>
</g>
<defs>
<clipPath id="clip0_1857_31087">
<rect width="30" height="30" fill="white"/>
</clipPath>
</defs>
</svg>
