<svg width="30" height="30" viewBox="0 0 30 30" fill="none" xmlns="http://www.w3.org/2000/svg">
<g clip-path="url(#clip0_1857_31088)">
<path d="M12.9326 17.6521C14.6751 16.7496 16.4001 15.8546 18.1476 14.9471C16.3976 14.0321 14.6701 13.1321 12.9326 12.2246C12.9326 14.0396 12.9326 15.8346 12.9326 17.6521Z" fill="#61605A"/>
<path d="M15 0.25C6.855 0.25 0.25 6.855 0.25 15C0.25 23.145 6.855 29.75 15 29.75C23.145 29.75 29.75 23.145 29.75 15C29.75 6.855 23.145 0.25 15 0.25ZM22.8625 19.655C22.6675 20.07 22.3525 20.3625 21.9525 20.5725C20.8725 21.14 9.75 21.1325 8.33 20.665C7.695 20.4575 7.27 20.0425 7.04 19.4125C6.48 17.8775 6.315 11.455 7.3925 10.1925C7.7575 9.76 8.2325 9.505 8.795 9.445C11.6925 9.1325 20.6425 9.1775 21.6725 9.55C22.275 9.7675 22.705 10.1625 22.9375 10.7675C23.5525 12.3525 23.5725 18.125 22.8625 19.655Z" fill="#61605A"/>
</g>
<defs>
<clipPath id="clip0_1857_31088">
<rect width="30" height="30" fill="white"/>
</clipPath>
</defs>
</svg>
